<svg width="600" height="180" viewBox="0 0 600 180" fill="none" xmlns="http://www.w3.org/2000/svg">
<path fill-rule="evenodd" clip-rule="evenodd" d="M401.541 5C418.312 5 433.686 11.9059 444.652 23.0202C455.725 34.1344 462.605 49.4569 462.605 66.2901C462.605 83.1234 455.725 98.5538 444.652 109.56C433.578 120.674 418.312 127.58 401.541 127.58C384.77 127.58 369.396 120.674 358.43 109.56C347.357 98.4459 340.477 83.1234 340.477 66.2901C340.477 49.4569 347.357 34.0265 358.43 23.0202C369.504 11.9059 384.77 5 401.541 5ZM401.541 37.3716C393.585 37.3716 386.382 40.6087 381.222 45.8961C375.954 51.1834 372.729 58.4131 372.729 66.2901C372.729 74.2751 375.954 81.5048 381.222 86.6842C386.49 91.9716 393.693 95.2088 401.541 95.2088C409.497 95.2088 416.7 91.9716 421.86 86.6842C427.128 81.3969 430.353 74.1672 430.353 66.2901C430.353 58.3052 427.128 51.0755 421.86 45.8961C416.7 40.6087 409.497 37.3716 401.541 37.3716Z" fill="url(#paint0_linear_4013_23772)"/>
<path fill-rule="evenodd" clip-rule="evenodd" d="M278.122 111.395C278.122 120.351 270.919 127.58 261.996 127.58C255.868 127.58 250.6 124.127 247.805 119.164C238.774 124.559 228.239 127.58 216.95 127.58C200.179 127.58 184.806 120.674 173.84 109.56C162.766 98.4459 155.886 83.1234 155.886 66.2901C155.886 49.4569 162.766 34.0265 173.84 23.0202C184.913 11.9059 200.179 5 216.95 5C233.722 5 249.095 11.9059 260.061 23.0202C270.919 33.9186 277.692 48.9174 278.015 65.4269V65.5348V65.8585V65.9664V66.3981V66.8297V111.395H278.122ZM245.87 66.6139V65.8585C245.762 58.0894 242.537 50.9676 237.377 45.7882C232.109 40.5008 224.906 37.2637 217.058 37.2637C209.102 37.2637 201.899 40.5008 196.739 45.7882C191.471 51.0755 188.246 58.3052 188.246 66.1822C188.246 74.1672 191.471 81.3969 196.739 86.5763C202.007 91.8637 209.21 95.1008 217.058 95.1008C225.013 95.1008 232.216 91.8637 237.377 86.5763C242.537 81.5048 245.762 74.491 245.87 66.6139Z" fill="url(#paint1_linear_4013_23772)"/>
<path fill-rule="evenodd" clip-rule="evenodd" d="M538.828 5C555.599 5 570.973 11.9059 582.046 23.0202C593.12 34.1344 600 49.4569 600 66.2901C600 83.1234 593.12 98.5538 582.046 109.56C570.973 120.674 555.707 127.58 538.936 127.58C522.164 127.58 506.791 120.674 495.825 109.56C484.752 98.4459 477.871 83.1234 477.871 66.2901C477.871 49.4569 484.752 34.0265 495.825 23.0202C506.683 11.9059 521.949 5 538.828 5ZM538.828 37.3716C530.873 37.3716 523.67 40.6087 518.509 45.8961C513.241 51.1834 510.016 58.4131 510.016 66.2901C510.016 74.2751 513.241 81.5048 518.509 86.6842C523.777 91.9716 530.98 95.2088 538.828 95.2088C546.784 95.2088 553.987 91.9716 559.147 86.6842C564.415 81.3969 567.64 74.1672 567.64 66.2901C567.64 58.3052 564.415 51.0755 559.147 45.8961C553.879 40.6087 546.676 37.3716 538.828 37.3716Z" fill="url(#paint2_linear_4013_23772)"/>
<path fill-rule="evenodd" clip-rule="evenodd" d="M293.173 21.1858C293.173 12.2296 300.376 5 309.299 5C318.223 5 325.426 12.2296 325.426 21.1858C325.426 51.3992 325.533 81.3969 325.533 111.502C325.533 143.766 301.666 170.419 270.704 174.627C262.534 176.138 254.471 171.066 252.32 162.865C250.063 154.233 255.116 145.385 263.716 143.011L272.424 140.853C284.465 136.536 293.173 124.991 293.173 111.395C293.066 81.289 293.173 51.2913 293.173 21.1858Z" fill="url(#paint3_linear_4013_23772)"/>
<path fill-rule="evenodd" clip-rule="evenodd" d="M140.835 111.61C140.835 120.566 133.632 127.796 124.709 127.796C115.786 127.796 108.583 120.566 108.583 111.61C108.583 91.7558 108.583 72.0091 108.583 52.2625C111.27 52.2625 113.958 52.2625 116.646 52.2625C118.581 52.2625 119.548 50.536 118.151 49.0253C111.915 41.6878 105.572 34.4581 99.337 27.1206C97.7244 24.9625 97.1869 25.3941 95.6818 27.1206C89.4463 34.4581 83.1034 41.6878 76.8679 49.0253C75.4704 50.6439 76.4379 52.2625 78.3731 52.2625C81.0607 52.2625 83.7484 52.2625 86.4361 52.2625C86.4361 72.117 86.5436 91.7558 86.5436 111.61C86.5436 120.566 79.3406 127.796 70.4175 127.796C61.4944 127.796 54.2913 120.566 54.2913 111.61C54.2913 97.6906 54.3989 83.8787 54.3989 70.0668C57.0865 70.0668 59.7742 70.0668 62.4619 70.0668C64.3971 70.0668 65.3646 68.3404 63.967 66.8297C57.7316 59.4921 51.3886 52.2625 45.1532 44.9249C43.5406 42.7668 43.003 43.1984 41.4979 44.9249C35.2625 52.2625 28.9195 59.4921 22.6841 66.8297C21.2865 68.4483 22.2541 70.0668 24.1892 70.0668C26.8769 70.0668 29.5646 70.0668 32.2523 70.0668V70.8222V111.61C32.2523 120.566 25.0493 127.796 16.1261 127.796C7.20301 127.796 0 120.566 0 111.61V48.3779C0 36.5083 4.83784 25.6099 12.6859 17.7328C20.534 9.85572 31.3922 5 43.3256 5C53.6463 5 63.107 8.66878 70.525 14.7115C77.943 8.66878 87.4037 5 97.7244 5C109.658 5 120.516 9.85572 128.364 17.7328C136.212 25.6099 141.05 36.5083 141.05 48.3779V111.61H140.835Z" fill="url(#paint4_linear_4013_23772)"/>
<defs>
<linearGradient id="paint0_linear_4013_23772" x1="401.584" y1="123.238" x2="401.584" y2="0.59207" gradientUnits="userSpaceOnUse">
<stop stop-color="#2DBDB6"/>
<stop offset="0.27" stop-color="#2DBDB6"/>
<stop offset="1" stop-color="#9ACF87"/>
</linearGradient>
<linearGradient id="paint1_linear_4013_23772" x1="217.014" y1="115.229" x2="217.014" y2="-7.41644" gradientUnits="userSpaceOnUse">
<stop stop-color="#2DBDB6"/>
<stop offset="0.27" stop-color="#2DBDB6"/>
<stop offset="1" stop-color="#9ACF87"/>
</linearGradient>
<linearGradient id="paint2_linear_4013_23772" x1="538.798" y1="119.678" x2="538.798" y2="-2.96815" gradientUnits="userSpaceOnUse">
<stop stop-color="#2DBDB6"/>
<stop offset="0.27" stop-color="#2DBDB6"/>
<stop offset="1" stop-color="#9ACF87"/>
</linearGradient>
<linearGradient id="paint3_linear_4013_23772" x1="288.653" y1="135.285" x2="288.653" y2="-4.24338" gradientUnits="userSpaceOnUse">
<stop stop-color="#2DBDB6"/>
<stop offset="0.27" stop-color="#2DBDB6"/>
<stop offset="0.5009" stop-color="#57C1AA"/>
<stop offset="0.9669" stop-color="#96CE8A"/>
<stop offset="1" stop-color="#9ACF87"/>
</linearGradient>
<linearGradient id="paint4_linear_4013_23772" x1="70.397" y1="134.015" x2="70.397" y2="-7.48128" gradientUnits="userSpaceOnUse">
<stop stop-color="#2DBDB6"/>
<stop offset="0.27" stop-color="#2DBDB6"/>
<stop offset="1" stop-color="#9ACF87"/>
</linearGradient>
</defs>
</svg>
